<svg viewBox="63 200 731 129" xmlns="http://www.w3.org/2000/svg" >
    <path fill="#f5f5f5" d="M252.9,307h13.9v-54.4h18.2v-13.1h-50v13.1h18L252.9,307z" />
    <path fill="#f5f5f5" d="M285,307h13v-22.7c0-7.9,4.1-12.6,10.3-12.6c2,0,4,0.3,5.9,1v-13.2c-1.4-0.4-2.9-0.6-4.4-0.6c-5.2,0-9.9,3.3-11.8,8.2v-7.6h-13L285,307z" />
    <path fill="#f5f5f5" d="M339.1,308.1c6.6,0,11.5-3.3,13.7-6.4v5.3h13v-47.5h-13v5.3c-2.2-3-7.1-6.4-13.7-6.4c-12.6,0-22.3,11.4-22.3,24.8S326.5,308.1,339.1,308.1z M341.9,296.2c-7.2,0-12-5.4-12-12.9s4.8-12.9,12-12.9s12,5.4,12,12.9S349.1,296.2,341.9,296.2z" />
    <path fill="#f5f5f5" d="M396.8,308.1c6.6,0,11.5-3.3,13.7-6.4v5.3h13v-71.3h-13v29.1c-2.2-3-7.1-6.4-13.7-6.4c-12.6,0-22.3,11.4-22.3,24.8S384.2,308.1,396.8,308.1z M399.6,296.2c-7.2,0-12-5.4-12-12.9s4.8-12.9,12-12.9s12,5.4,12,12.9S406.8,296.2,399.6,296.2z" />
    <path fill="#f5f5f5" d="M441.7,251.7c4.6,0,8.3-3.7,8.3-8.3s-3.7-8.3-8.3-8.3c-4.6,0-8.3,3.7-8.3,8.3c0,0,0,0,0,0C433.5,248,437.2,251.7,441.7,251.7z M435.3,307h13v-47.5h-13V307z" />
    <path fill="#f5f5f5" d="M459.8,307h13v-23.2c0-9.1,4.5-13.5,10.5-13.5c5.4,0,8.4,4.2,8.4,11V307h13v-27.8c0-12.4-6.8-20.7-18.4-20.7c-6.2,0-11,2.7-13.6,6.5v-5.4h-13L459.8,307z" />
    <path fill="#f5f5f5" d="M537.9,294.7c-6.7,0.1-12.2-5.3-12.3-12.1c-0.1-6.7,5.3-12.2,12.1-12.3c6.7-0.1,12.2,5.3,12.3,12.1c0,0,0,0.1,0,0.1c0.2,6.6-5,12-11.6,12.2C538.2,294.7,538.1,294.7,537.9,294.7z M536.4,327.8c14.5,0,25.6-7.4,25.6-24.5v-43.8h-13v5.3c-2.6-3.7-7.7-6.4-13.8-6.4c-12.5,0-22.4,10.6-22.4,24s10,24,22.4,24c6.1,0,11.2-2.8,13.8-6.3v3.2c0,7.6-5,13-12.7,13c-5.5,0.1-10.9-2.1-14.8-5.9l-7.1,9.7C519.7,325.5,528.1,327.8,536.4,327.8z" />
    <path fill="#f5f5f5" d="M589.5,307h12.3l27.9-67.5h-15.2l-18.8,46.9l-19.1-46.9h-14.9L589.5,307z" />
    <path fill="#f5f5f5" d="M641.7,251.7c4.6,0,8.3-3.7,8.3-8.3c0-4.6-3.7-8.3-8.3-8.3c-4.6,0-8.3,3.7-8.3,8.3C633.4,248,637.1,251.7,641.7,251.7z M635.2,307h13v-47.5h-13V307z" />
    <path fill="#f5f5f5" d="M681.9,308.1c10,0,17.6-4.2,22-10.6l-9.7-7.2c-2.2,3.3-6.3,6-12.3,6c-6.3,0-11.9-3.5-12.6-9.9h35.5c0.2-1.5,0.3-3,0.2-4.5c0-15.5-10.9-23.4-23.4-23.4c-14.5,0-25,10.7-25,24.8C656.7,298.3,667.8,308.1,681.9,308.1z M669.8,277.5c1.2-5.8,6.7-8.3,11.5-8.3s9.6,2.6,10.7,8.3H669.8z" />
    <path fill="#f5f5f5" d="M753.9,307h12.9l15.7-47.5h-14l-8.9,30.4l-9.7-30.4h-10l-9.6,30.4l-9-30.4h-13.9l15.8,47.5h12.9l8.8-27L753.9,307z" />
    <path fill="#f5f5f5" d="M127,306.9h-26.2v-41.2H74.5v-26.2H127V306.9z" />
    <path fill="#f5f5f5" d="M179.5,306.9h-30l28.1-67.4h30L179.5,306.9z" />
    <circle fill="#f5f5f5" cx="149.5" cy="254.4" r="15" />
    <rect x="63" y="200" fill="none" width="731" height="129" />
</svg>